<svg width="80" height="80" viewBox="0 0 80 80" fill="none" xmlns="http://www.w3.org/2000/svg">
<path d="M48.2667 68.9333H46.2C46.2 69.3171 46.3069 69.6934 46.5087 70.0198C46.7104 70.3463 46.9991 70.6102 47.3424 70.7818C47.6857 70.9535 48.07 71.0261 48.4523 70.9916C48.8345 70.9572 49.1996 70.8169 49.5067 70.5867L48.2667 68.9333ZM56.5333 62.7333L57.7733 61.08C57.4156 60.8117 56.9805 60.6667 56.5333 60.6667C56.0862 60.6667 55.6511 60.8117 55.2933 61.08L56.5333 62.7333ZM64.8 68.9333L63.56 70.5867C63.867 70.8169 64.2321 70.9572 64.6144 70.9916C64.9967 71.0261 65.381 70.9535 65.7242 70.7818C66.0675 70.6102 66.3562 70.3463 66.558 70.0198C66.7598 69.6934 66.8667 69.3171 66.8667 68.9333H64.8ZM56.5333 54.4667C53.7928 54.4667 51.1644 53.378 49.2266 51.4401C47.2887 49.5022 46.2 46.8739 46.2 44.1333H42.0667C42.0667 47.9701 43.5908 51.6498 46.3039 54.3628C49.0169 57.0758 52.6965 58.6 56.5333 58.6V54.4667ZM66.8667 44.1333C66.8667 46.8739 65.778 49.5022 63.8401 51.4401C61.9022 53.378 59.2739 54.4667 56.5333 54.4667V58.6C60.3701 58.6 64.0498 57.0758 66.7628 54.3628C69.4758 51.6498 71 47.9701 71 44.1333H66.8667ZM56.5333 33.8C59.2739 33.8 61.9022 34.8887 63.8401 36.8266C65.778 38.7644 66.8667 41.3928 66.8667 44.1333H71C71 40.2965 69.4758 36.6169 66.7628 33.9039C64.0498 31.1908 60.3701 29.6667 56.5333 29.6667V33.8ZM56.5333 29.6667C52.6965 29.6667 49.0169 31.1908 46.3039 33.9039C43.5908 36.6169 42.0667 40.2965 42.0667 44.1333H46.2C46.2 41.3928 47.2887 38.7644 49.2266 36.8266C51.1644 34.8887 53.7928 33.8 56.5333 33.8V29.6667ZM46.2 52.4V68.9333H50.3333V52.4H46.2ZM49.5067 70.5867L57.7733 64.3867L55.2933 61.08L47.0267 67.28L49.5067 70.5867ZM55.2933 64.3867L63.56 70.5867L66.04 67.28L57.7733 61.08L55.2933 64.3867ZM66.8667 68.9333V52.4H62.7333V68.9333H66.8667ZM71 29.6667V15.2H66.8667V29.6667H71ZM64.8 9H15.2V13.1333H64.8V9ZM9 15.2V64.8H13.1333V15.2H9ZM15.2 71H42.0667V66.8667H15.2V71ZM9 64.8C9 66.4443 9.65321 68.0213 10.8159 69.1841C11.9787 70.3468 13.5557 71 15.2 71V66.8667C14.6519 66.8667 14.1262 66.6489 13.7386 66.2614C13.3511 65.8738 13.1333 65.3481 13.1333 64.8H9ZM15.2 9C13.5557 9 11.9787 9.65321 10.8159 10.8159C9.65321 11.9787 9 13.5557 9 15.2H13.1333C13.1333 14.6519 13.3511 14.1262 13.7386 13.7386C14.1262 13.3511 14.6519 13.1333 15.2 13.1333V9ZM71 15.2C71 13.5557 70.3468 11.9787 69.1841 10.8159C68.0213 9.65321 66.4443 9 64.8 9V13.1333C65.3481 13.1333 65.8738 13.3511 66.2614 13.7386C66.6489 14.1262 66.8667 14.6519 66.8667 15.2H71ZM21.4 29.6667H42.0667V25.5333H21.4V29.6667ZM21.4 42.0667H33.8V37.9333H21.4V42.0667Z" fill="#1B756B"/>
</svg>
