<svg width="80" height="80" viewBox="0 0 80 80" fill="none" xmlns="http://www.w3.org/2000/svg">
<path d="M58.5163 11.9581C55.4084 11.5409 51.3119 11.5349 45.5465 11.5349C44.9451 11.5349 44.3684 11.296 43.9432 10.8708C43.518 10.4455 43.2791 9.8688 43.2791 9.26744C43.2791 8.66608 43.518 8.08935 43.9432 7.66412C44.3684 7.23889 44.9451 7 45.5465 7H45.7158C51.2726 7 55.6744 7 59.1179 7.46256C62.6612 7.94023 65.5302 8.94395 67.7946 11.2053C69.8626 13.2763 70.9933 15.2444 71.5223 18.2828C72 21.0158 72 24.6981 72 30.14V30.4302C72 31.0316 71.7611 31.6083 71.3359 32.0336C70.9107 32.4588 70.3339 32.6977 69.7326 32.6977C69.1312 32.6977 68.5545 32.4588 68.1292 32.0336C67.704 31.6083 67.4651 31.0316 67.4651 30.4302C67.4651 24.6256 67.456 21.3574 67.057 19.0628C66.7002 17.0281 66.0593 15.8853 64.587 14.413C63.3081 13.1342 61.5547 12.3663 58.5133 11.9581M11.5349 48.5698C11.5349 47.9684 11.296 47.3917 10.8708 46.9664C10.4455 46.5412 9.8688 46.3023 9.26744 46.3023C8.66608 46.3023 8.08935 46.5412 7.66412 46.9664C7.23889 47.3917 7 47.9684 7 48.5698V48.86C7 54.3019 7 57.9842 7.47767 60.7172C8.00674 63.7556 9.13744 65.7237 11.2053 67.7916C13.4698 70.0591 16.3388 71.0598 19.8821 71.5374C23.3286 72 27.7274 72 33.2842 72H33.4535C34.0549 72 34.6316 71.7611 35.0568 71.3359C35.482 70.9107 35.7209 70.3339 35.7209 69.7326C35.7209 69.1312 35.482 68.5545 35.0568 68.1292C34.6316 67.704 34.0549 67.4651 33.4535 67.4651C27.6881 67.4651 23.5947 67.4591 20.4837 67.0419C17.4453 66.6337 15.6919 65.8658 14.413 64.587C12.9407 63.1147 12.2967 61.9719 11.943 59.9372C11.544 57.6426 11.5349 54.3744 11.5349 48.5698ZM72 48.5698C72 47.9684 71.7611 47.3917 71.3359 46.9664C70.9107 46.5412 70.3339 46.3023 69.7326 46.3023C69.1312 46.3023 68.5545 46.5412 68.1292 46.9664C67.704 47.3917 67.4651 47.9684 67.4651 48.5698C67.4651 54.3744 67.456 57.6426 67.057 59.9372C66.7002 61.9719 66.0593 63.1147 64.587 64.587C63.3081 65.8658 61.5547 66.6337 58.5133 67.0419C55.4084 67.4591 51.3119 67.4651 45.5465 67.4651C44.9451 67.4651 44.3684 67.704 43.9432 68.1292C43.518 68.5545 43.2791 69.1312 43.2791 69.7326C43.2791 70.3339 43.518 70.9107 43.9432 71.3359C44.3684 71.7611 44.9451 72 45.5465 72H45.7158C51.2726 72 55.6744 72 59.1179 71.5374C62.6612 71.0598 65.5302 70.056 67.7946 67.7946C69.8626 65.7237 70.9933 63.7556 71.5223 60.7172C72 57.9842 72 54.2988 72 48.86V48.5698ZM33.4535 7H33.2842C27.7274 7 23.3256 7 19.8821 7.46256C16.3388 7.94023 13.4698 8.94395 11.2053 11.2053C9.13744 13.2763 8.00674 15.2444 7.47767 18.2828C7 21.0158 7 24.6981 7 30.14V30.4302C7 31.0316 7.23889 31.6083 7.66412 32.0336C8.08935 32.4588 8.66608 32.6977 9.26744 32.6977C9.8688 32.6977 10.4455 32.4588 10.8708 32.0336C11.296 31.6083 11.5349 31.0316 11.5349 30.4302C11.5349 24.6256 11.544 21.3574 11.943 19.0628C12.2998 17.0281 12.9407 15.8853 14.413 14.413C15.6919 13.1342 17.4453 12.3663 20.4867 11.9581C23.5947 11.5409 27.6881 11.5349 33.4535 11.5349C34.0549 11.5349 34.6316 11.296 35.0568 10.8708C35.482 10.4455 35.7209 9.8688 35.7209 9.26744C35.7209 8.66608 35.482 8.08935 35.0568 7.66412C34.6316 7.23889 34.0549 7 33.4535 7Z" fill="#1B756B"/>
<path fill-rule="evenodd" clip-rule="evenodd" d="M39.5 31C37.2457 31 35.0837 31.8955 33.4896 33.4896C31.8955 35.0837 31 37.2457 31 39.5C31 41.7543 31.8955 43.9163 33.4896 45.5104C35.0837 47.1045 37.2457 48 39.5 48C41.7543 48 43.9163 47.1045 45.5104 45.5104C47.1045 43.9163 48 41.7543 48 39.5C48 37.2457 47.1045 35.0837 45.5104 33.4896C43.9163 31.8955 41.7543 31 39.5 31ZM35.6364 39.5C35.6364 38.4753 36.0434 37.4926 36.768 36.768C37.4926 36.0434 38.4753 35.6364 39.5 35.6364C40.5247 35.6364 41.5074 36.0434 42.232 36.768C42.9566 37.4926 43.3636 38.4753 43.3636 39.5C43.3636 40.5247 42.9566 41.5074 42.232 42.232C41.5074 42.9566 40.5247 43.3636 39.5 43.3636C38.4753 43.3636 37.4926 42.9566 36.768 42.232C36.0434 41.5074 35.6364 40.5247 35.6364 39.5Z" fill="#1B756B"/>
<path fill-rule="evenodd" clip-rule="evenodd" d="M19.2566 31.7391C23.1076 27.2561 29.724 22 39.5 22C49.276 22 55.8924 27.2561 59.7434 31.7391L59.8404 31.8548C60.6591 32.8104 61.5081 33.7935 62.0873 34.9713C62.7362 36.2891 63 37.7013 63 39.5C63 41.2957 62.7362 42.7109 62.0903 44.0287C61.5081 45.2065 60.6621 46.1896 59.8404 47.1452L59.7434 47.2578C55.8924 51.7439 49.276 57 39.5 57C29.724 57 23.1076 51.7439 19.2566 47.2609L19.1596 47.1452C18.3409 46.1896 17.4919 45.2065 16.9127 44.0287C16.2638 42.7109 16 41.2987 16 39.5C16 37.7043 16.2638 36.2891 16.9097 34.9713C17.4919 33.7935 18.3379 32.8104 19.1596 31.8548L19.2566 31.7391ZM39.5 26.5652C31.5221 26.5652 26.055 30.817 22.7013 34.7217C21.7522 35.8296 21.2883 36.3926 20.9881 36.9952C20.7364 37.5096 20.5484 38.1791 20.5484 39.5C20.5484 40.8209 20.7364 41.4904 20.9881 42.0048C21.2883 42.6074 21.7522 43.1704 22.7013 44.2783C26.055 48.183 31.5221 52.4348 39.5 52.4348C47.4779 52.4348 52.945 48.183 56.2987 44.2783C57.2508 43.1704 57.7117 42.6074 58.0119 42.0048C58.2636 41.4904 58.4516 40.8209 58.4516 39.5C58.4516 38.1791 58.2636 37.5096 58.0119 36.9952C57.7117 36.3926 57.2478 35.8296 56.2957 34.7217C52.9481 30.817 47.4809 26.5652 39.5 26.5652Z" fill="#1B756B"/>
</svg>
