<svg width="80" height="80" viewBox="0 0 80 80" fill="none" xmlns="http://www.w3.org/2000/svg">
<path d="M13.3337 38.3333L11.717 38.7367C10.2747 39.0972 8.99435 39.9294 8.07934 41.1011C7.16434 42.2728 6.66722 43.7167 6.66699 45.2033V51.46C6.66722 52.9466 7.16434 54.3905 8.07934 55.5622C8.99435 56.7339 10.2747 57.5662 11.717 57.9267L17.517 59.3767C17.8117 59.4501 18.1193 59.4554 18.4164 59.3922C18.7134 59.329 18.9922 59.199 19.2316 59.012C19.4709 58.8251 19.6645 58.586 19.7977 58.3131C19.9309 58.0401 20.0002 57.7404 20.0003 57.4367V39.2267C20.0003 38.9226 19.931 38.6225 19.7976 38.3492C19.6642 38.076 19.4703 37.8367 19.2305 37.6497C18.9908 37.4626 18.7115 37.3327 18.414 37.2698C18.1165 37.2069 17.8086 37.2127 17.5137 37.2867L13.3337 38.3333ZM13.3337 38.3333V36.6667C13.3337 29.5942 16.1432 22.8115 21.1441 17.8105C26.1451 12.8095 32.9279 10 40.0003 10C47.0728 10 53.8555 12.8095 58.8565 17.8105C63.8575 22.8115 66.667 29.5942 66.667 36.6667V38.3333M66.667 38.3333L68.2837 38.7367C69.7259 39.0972 71.0063 39.9294 71.9213 41.1011C72.8363 42.2728 73.3334 43.7167 73.3337 45.2033V51.46C73.3334 52.9466 72.8363 54.3905 71.9213 55.5622C71.0063 56.7339 69.7259 57.5662 68.2837 57.9267L66.667 58.3333M66.667 38.3333L62.4837 37.2867C62.1889 37.2133 61.8814 37.208 61.5843 37.2711C61.2872 37.3343 61.0084 37.4643 60.7691 37.6513C60.5297 37.8383 60.3361 38.0773 60.2029 38.3503C60.0697 38.6232 60.0004 38.9229 60.0003 39.2267V57.4367C60.0004 57.7404 60.0697 58.0401 60.2029 58.3131C60.3361 58.586 60.5297 58.8251 60.7691 59.012C61.0084 59.199 61.2872 59.329 61.5843 59.3922C61.8814 59.4554 62.1889 59.4501 62.4837 59.3767L66.667 58.3333M66.667 58.3333V61.6667C66.667 63.4348 65.9646 65.1305 64.7144 66.3807C63.4641 67.631 61.7684 68.3333 60.0003 68.3333H50.0003M50.0003 68.3333C50.0003 67.0072 49.4735 65.7355 48.5359 64.7978C47.5982 63.8601 46.3264 63.3333 45.0003 63.3333H35.0003C33.6742 63.3333 32.4025 63.8601 31.4648 64.7978C30.5271 65.7355 30.0003 67.0072 30.0003 68.3333C30.0003 69.6594 30.5271 70.9312 31.4648 71.8689C32.4025 72.8065 33.6742 73.3333 35.0003 73.3333H45.0003C46.3264 73.3333 47.5982 72.8065 48.5359 71.8689C49.4735 70.9312 50.0003 69.6594 50.0003 68.3333Z" stroke="#1B756B" stroke-width="5"/>
</svg>
