<svg width="80" height="80" viewBox="0 0 80 80" fill="none" xmlns="http://www.w3.org/2000/svg">
<path d="M40 23.332V46.6654M40 46.6654L50 36.6654M40 46.6654L30 36.6654" stroke="#1B756B" stroke-width="5" stroke-linecap="round" stroke-linejoin="round"/>
<path d="M53.3337 56.666H26.667M73.3337 39.9993C73.3337 55.7127 73.3337 63.5693 68.4503 68.4493C63.5737 73.3327 55.7137 73.3327 40.0003 73.3327C24.287 73.3327 16.4303 73.3327 11.547 68.4493C6.66699 63.5727 6.66699 55.7127 6.66699 39.9993C6.66699 24.286 6.66699 16.4293 11.547 11.546C16.4337 6.66602 24.287 6.66602 40.0003 6.66602C55.7137 6.66602 63.5703 6.66602 68.4503 11.546C71.697 14.7927 72.7837 19.356 73.1503 26.666" stroke="#1B756B" stroke-width="5" stroke-linecap="round"/>
</svg>
