<svg width="80" height="80" viewBox="0 0 80 80" fill="none" xmlns="http://www.w3.org/2000/svg">
<path d="M33.3337 53.334H38.3337M48.3337 53.334H60.0003M6.66699 30.0007H73.3337M6.66699 40.0007C6.66699 28.2107 6.66699 22.314 10.177 18.3773C10.7392 17.7462 11.3548 17.1662 12.0237 16.6373C16.207 13.334 22.4703 13.334 35.0003 13.334H45.0003C57.5303 13.334 63.7937 13.334 67.9737 16.634C68.6448 17.1673 69.2614 17.7484 69.8237 18.3773C73.3337 22.3107 73.3337 28.2107 73.3337 40.0007C73.3337 51.7906 73.3337 57.6873 69.8237 61.624C69.2585 62.2564 68.6395 62.8386 67.9737 63.364C63.7937 66.6673 57.5337 66.6673 45.0003 66.6673H35.0003C22.4703 66.6673 16.207 66.6673 12.0237 63.3673C11.3589 62.8407 10.741 62.2574 10.177 61.624C6.66699 57.6906 6.66699 51.7906 6.66699 40.0007Z" stroke="#1B756B" stroke-width="5" stroke-linecap="round" stroke-linejoin="round"/>
</svg>
